<svg width="17" height="21" viewBox="0 0 17 21" fill="none" xmlns="http://www.w3.org/2000/svg">
<path d="M11.1319 1.48411L15.8962 6.0924M4.56482 10.0041H12.348M4.56482 15.5858H12.348M4.56482 12.7949H12.348M1.94658 1.48411C1.69777 1.49012 1.46124 1.58997 1.28749 1.76234C1.11374 1.93471 1.01652 2.16595 1.0166 2.40669V18.598C1.01652 18.8387 1.11374 19.07 1.28749 19.2423C1.46124 19.4147 1.69777 19.5145 1.94658 19.5206H14.9663C15.2192 19.5206 15.4618 19.4234 15.6407 19.2503C15.8196 19.0773 15.9201 18.8427 15.9201 18.598V6.0924H12.1048C11.856 6.08638 11.6195 5.98653 11.4457 5.81416C11.272 5.64179 11.1747 5.41055 11.1748 5.16982V1.47949L1.94658 1.48411Z" stroke="#E0ECFF" stroke-width="1.5" stroke-linecap="round" stroke-linejoin="round"/>
</svg>
