<svg width="22" height="22" viewBox="0 0 22 22" fill="none" xmlns="http://www.w3.org/2000/svg">
<path fill-rule="evenodd" clip-rule="evenodd" d="M10.9618 0.695131C8.35907 0.695465 5.84131 1.5788 3.85896 3.18712C1.87661 4.79545 0.558981 7.02384 0.14178 9.47368C-0.27542 11.9235 0.235022 14.435 1.5818 16.5588C2.92857 18.6827 5.02382 20.2803 7.49274 21.066C8.04091 21.1631 8.27584 20.842 8.27584 20.5657V18.7885C5.22961 19.4157 4.58747 17.3846 4.58747 17.3846C4.37326 16.7445 3.92241 16.2005 3.31886 15.8538C2.32433 15.2116 3.39717 15.2191 3.39717 15.2191C3.74455 15.2659 4.07613 15.3878 4.36657 15.5754C4.65701 15.7631 4.89863 16.0115 5.07299 16.3019C5.37631 16.8206 5.88328 17.2033 6.48242 17.3657C7.08156 17.5282 7.72383 17.4571 8.26801 17.1681C8.31222 16.6382 8.55718 16.1419 8.95713 15.7717C6.52954 15.5029 3.96883 14.6068 3.96883 10.6043C3.95107 9.56475 4.35507 8.55885 5.09648 7.79656C4.7609 6.89615 4.80013 5.90731 5.20611 5.03365C5.20611 5.03365 6.12233 4.74989 8.22102 6.10148C10.0155 5.63473 11.9082 5.63473 13.7027 6.10148C15.7935 4.74989 16.7097 5.03365 16.7097 5.03365C17.1157 5.90731 17.155 6.89615 16.8194 7.79656C17.5608 8.55885 17.9648 9.56475 17.947 10.6043C17.947 14.6217 15.3863 15.5029 12.9431 15.7642C13.2048 16.0172 13.4066 16.3207 13.5349 16.6543C13.6633 16.9879 13.7151 17.3439 13.687 17.6982V20.5657C13.687 20.9092 13.8828 21.1706 14.4701 21.066C16.9423 20.2793 19.0397 18.6786 20.3862 16.5509C21.7328 14.4231 22.2404 11.9075 21.8181 9.4552C21.3958 7.00287 20.0711 4.77422 18.0816 3.16889C16.0921 1.56355 13.568 0.686545 10.9618 0.695131Z" fill="#E0ECFF"/>
</svg>
