<svg width="22" height="23" viewBox="0 0 22 23" fill="none" xmlns="http://www.w3.org/2000/svg">
<path d="M14.5318 12.4001L10.0843 16.8476C9.966 16.9655 9.82561 17.059 9.67116 17.1226C9.51672 17.1861 9.35125 17.2187 9.18422 17.2183C8.84734 17.2168 8.52436 17.0838 8.28413 16.8476C8.16566 16.7296 8.07167 16.5893 8.00753 16.4348C7.9434 16.2804 7.91038 16.1148 7.91038 15.9475C7.91038 15.7803 7.9434 15.6147 8.00753 15.4602C8.07167 15.3058 8.16566 15.1655 8.28413 15.0475L10.5608 12.7707H1.7717C1.43468 12.7707 1.11147 12.6369 0.873161 12.3986C0.634856 12.1603 0.500977 11.837 0.500977 11.5C0.500977 11.163 0.634856 10.8398 0.873161 10.6015C1.11147 10.3632 1.43468 10.2293 1.7717 10.2293H10.5608L8.28413 7.9526C8.04541 7.71389 7.9113 7.39011 7.9113 7.05251C7.9113 6.71491 8.04541 6.39114 8.28413 6.15242C8.52285 5.9137 8.84662 5.77959 9.18422 5.77959C9.52182 5.77959 9.84559 5.9137 10.0843 6.15242L14.5318 10.5999C14.6503 10.718 14.7443 10.8583 14.8084 11.0127C14.8726 11.1672 14.9056 11.3328 14.9056 11.5C14.9056 11.6673 14.8726 11.8329 14.8084 11.9873C14.7443 12.1418 14.6503 12.2821 14.5318 12.4001ZM19.5618 0.910706H13.6317C13.2947 0.910706 12.9715 1.04458 12.7332 1.28289C12.4949 1.5212 12.361 1.84441 12.361 2.18142C12.361 2.51844 12.4949 2.84165 12.7332 3.07996C12.9715 3.31826 13.2947 3.45214 13.6317 3.45214H19.1382V19.5479H13.6317C13.2947 19.5479 12.9715 19.6818 12.7332 19.9201C12.4949 20.1584 12.361 20.4816 12.361 20.8186C12.361 21.1556 12.4949 21.4789 12.7332 21.7172C12.9715 21.9555 13.2947 22.0893 13.6317 22.0893H19.5618C20.1226 22.0866 20.6597 21.8625 21.0562 21.466C21.4528 21.0694 21.6768 20.5323 21.6796 19.9715V3.02857C21.6768 2.46774 21.4528 1.93066 21.0562 1.53409C20.6597 1.13751 20.1226 0.913489 19.5618 0.910706Z" fill="#E0ECFF"/>
</svg>
